# xmcd
#
# Track frame offsets:
#	150
#	17628
#	38521
#	54763
#	73591
#	88019
#	108162
#	131018
#	143062
#	153889
#	167506
#	185488
#	199969
#	215445
#	234557
#
# Disc length: 3339 seconds
#
# Revision: 1
# Processed by: cddbd v1.5.2PL0 Copyright (c) Steve Scherf et al.
# Submitted via: audiograbber 1.83.01
#
DISCID=c10d090f
DTITLE=Various Artist - Country Sings Disney
DYEAR=2008
DGENRE=Country
TTITLE0=Billy Ray Cyrus feat. Miley Cyrus - Ready Set Dont Go
TTITLE1=Rascal Flatts - Life Is A Highway (Disney-Pixar Cars)
TTITLE2=Tim McGraw - Wherever The Trail May Lead (Home On The Range)
TTITLE3=Martina McBride - Through Your Eyes (Bambi 2)
TTITLE4=Trisha Yearwood - Blue Beyond (Fox And The Hound 2)
TTITLE5=Bucky Covington - Youll Be In My Heart (Tarzan)
TTITLE6=Phil Stacey - Can You Feel The Love Tonight (The Lion King)
TTITLE7=Bonnie Raitt - Will The Sun Ever Shine Again (Home On The Range)
TTITLE8=Alison Krauss - There Is Life (Bambi 2)
TTITLE9=Jish Gracin - When I See An Elephant Fly (Dumbo)
TTITLE10=SheDaisy - Baby Mine (Dumbo)
TTITLE11=Little Big Town - We Go Together (Fox And The Hound 2)
TTITLE12=Faith Hill - Part Of Your World (The Little Mermaid)
TTITLE13=Brad Paisley - Find Yourself (Disney-Pixar Cars)
TTITLE14=Billy Ray Cyrus - Real Gone (Disney-Pixar Cars)
EXTD=
EXTT0=
EXTT1=
EXTT2=
EXTT3=
EXTT4=
EXTT5=
EXTT6=
EXTT7=
EXTT8=
EXTT9=
EXTT10=
EXTT11=
EXTT12=
EXTT13=
EXTT14=
PLAYORDER=
